#!OML:ASF H:\Male1\Project 1\Capture day 1\Session 1\Male1.ASF
:FULLY-SPECIFIED
:DEGREES
324
root 7.93103 15.0192 2.27724 190.534 75.0814 -164.586
lowerback 9.27384 0.216109 2.92392
upperback 4.84361 0.734197 0.599684
thorax -0.149934 0.499268 -1.09086
lowerneck -7.86558 6.24899 12.1252
upperneck 19.895 8.85446 -8.03644
head 8.35844 4.54482 -3.7925
rclavicle 3.0265e-014 -5.56597e-015
rhumerus -35.5521 -5.69636 -80.6081
rradius 29.89
rwrist -16.5893
rhand -16.0738 2.24865
rfingers 7.12502
rthumb 10.129 -27.4875
lclavicle 3.0265e-014 -5.56597e-015
lhumerus -27.3404 -1.97722 87.1034
lradius 38.4518
lwrist 3.31137
lhand -27.8 11.3538
lfingers 7.12502
lthumb -1.19273 41.3302
rfemur -16.3397 6.62449 30.5817
rtibia 31.3778
rfoot -16.7103 -17.1669
rtoes -18.6606
lfemur -7.10946 2.05756 -16.9994
ltibia 69.0767
lfoot -5.11306 -0.727126
ltoes -29.3649
325
root 8.19394 15.0367 2.21161 191.413 75.4516 -163.583
lowerback 9.4605 0.307459 3.11024
upperback 5.02811 0.886404 0.600692
thorax -0.0512482 0.587415 -1.20876
lowerneck -7.76834 6.24347 12.1008
upperneck 19.7659 8.83146 -7.96111
head 8.2905 4.53806 -3.76792
rclavicle 4.10987e-014 9.93923e-016
rhumerus -34.8612 -4.98097 -81.0744
rradius 30.5411
rwrist -17.438
rhand -17.0073 2.22056
rfingers 7.12502
rthumb 9.22829 -27.5575
lclavicle 4.10987e-014 9.93923e-016
lhumerus -27.3469 -1.30878 86.6958
lradius 36.9964
lwrist 2.53938
lhand -27.6005 11.6242
lfingers 7.12502
lthumb -1.00004 41.6016
rfemur -14.9781 6.76601 31.0028
rtibia 31.2567
rfoot -17.1854 -17.1716
rtoes -19.5679
lfemur -10.415 1.71774 -16.798
ltibia 71.6733
lfoot -5.9302 1.13289
ltoes -28.0535
326
root 8.45382 15.0516 2.14566 191.885 75.7987 -163.046
lowerback 9.60914 0.387392 3.19695
upperback 5.21092 1.01255 0.537571
thorax 0.0658062 0.661706 -1.33424
lowerneck -7.69076 6.23487 12.0773
upperneck 19.7015 8.80484 -7.86545
head 8.24678 4.5322 -3.73673
rclavicle -2.22142e-014 2.38542e-015
rhumerus -34.2259 -4.29945 -81.5653
rradius 31.2847
rwrist -18.1989
rhand -17.7919 2.12951
rfingers 7.12502
rthumb 8.4712 -27.6806
lclavicle -2.22142e-014 2.38542e-015
lhumerus -27.3683 -0.710314 86.2236
lradius 35.5779
lwrist 1.68317
lhand -27.2421 11.797
lfingers 7.12502
lthumb -0.653964 41.7758
rfemur -13.7086 6.97273 31.2829
rtibia 31.2131
rfoot -17.8127 -17.2676
rtoes -20.468
lfemur -13.6471 1.16176 -16.7772
ltibia 73.272
lfoot -6.822 2.86938
ltoes -25.6543
327
root 8.71177 15.0623 2.07921 192.205 76.1193 -162.698
lowerback 9.73084 0.466786 3.2525
upperback 5.38753 1.13374 0.442201
thorax 0.191862 0.733448 -1.47479
lowerneck -7.66137 6.21455 12.0533
upperneck 19.712 8.76563 -7.77697
head 8.23575 4.51999 -3.70827
rclavicle 5.45664e-014 6.95746e-015
rhumerus -33.7082 -3.63613 -82.0569
rradius 32.1947
rwrist -18.9423
rhand -18.3506 1.98101
rfingers 7.12502
rthumb 7.93196 -27.8502
lclavicle 5.45664e-014 6.95746e-015
lhumerus -27.4143 -0.166702 85.7233
lradius 34.2242
lwrist 0.751448
lhand -26.7632 11.9492
lfingers 7.12502
lthumb -0.191411 41.9288
rfemur -12.505 7.21979 31.5072
rtibia 31.2288
rfoot -18.5784 -17.4078
rtoes -21.2419
lfemur -16.7218 0.41644 -16.8105
ltibia 73.8832
lfoot -7.83508 4.37112
ltoes -22.8412
328
root 8.96878 15.0673 2.01271 192.547 76.4073 -162.353
lowerback 9.83932 0.544564 3.30124
upperback 5.54746 1.25136 0.341845
thorax 0.308485 0.80293 -1.61636
lowerneck -7.65162 6.18641 12.0396
upperneck 19.7694 8.72507 -7.72568
head 8.24588 4.50542 -3.69384
rclavicle -3.64273e-014 6.16232e-015
rhumerus -33.3422 -2.9418 -82.5369
rradius 33.2888
rwrist -19.7076
rhand -18.6681 1.87391
rfingers 7.12502
rthumb 7.62553 -27.9686
lclavicle -3.64273e-014 6.16232e-015
lhumerus -27.5101 0.367045 85.2095
lradius 32.9672
lwrist -0.253418
lhand -26.1902 12.1404
lfingers 7.12502
lthumb 0.362042 42.1199
rfemur -11.3432 7.49953 31.7338
rtibia 31.2779
rfoot -19.4496 -17.5803
rtoes -21.8806
lfemur -19.5702 -0.474747 -16.8027
ltibia 73.5448
lfoot -9.01132 5.69954
ltoes -20.1475
329
root 9.22667 15.0666 1.9461 192.994 76.6893 -161.922
lowerback 9.93895 0.625568 3.34223
upperback 5.68253 1.37157 0.244601
thorax 0.40477 0.872505 -1.75082
lowerneck -7.6248 6.15707 12.0461
upperneck 19.8465 8.69633 -7.72615
head 8.26385 4.49484 -3.69948
rclavicle 2.33572e-014 -7.95139e-016
rhumerus -33.1327 -2.19762 -83.0018
rradius 34.5206
rwrist -20.4741
rhand -18.7668 1.91459
rfingers 7.12502
rthumb 7.53025 -27.9314
lclavicle 2.33572e-014 -7.95139e-016
lhumerus -27.6917 0.902842 84.6812
lradius 31.8536
lwrist -1.29462
lhand -25.5515 12.4341
lfingers 7.12502
lthumb 0.978924 42.4116
rfemur -10.182 7.82627 31.9866
rtibia 31.3077
rfoot -20.3586 -17.7797
rtoes -22.3834
lfemur -22.127 -1.4316 -16.7068
ltibia 72.3066
lfoot -10.2979 6.97343
ltoes -17.9962
330
root 9.48683 15.0621 1.8796 193.463 76.9607 -161.488
lowerback 10.0198 0.705456 3.35126
upperback 5.79064 1.48571 0.14518
thorax 0.482739 0.937077 -1.86912
lowerneck -7.5747 6.12921 12.0413
upperneck 19.9234 8.67596 -7.7295
head 8.27791 4.48813 -3.70392
rclavicle -5.35725e-014 1.35174e-014
rhumerus -33.0579 -1.42657 -83.4489
rradius 35.8149
rwrist -21.1826
rhand -18.6882 2.1638
rfingers 7.12502
rthumb 7.60608 -27.6794
lclavicle -5.35725e-014 1.35174e-014
lhumerus -27.9799 1.40017 84.1458
lradius 30.9219
lwrist -2.28641
lhand -24.9057 12.8144
lfingers 7.12502
lthumb 1.60265 42.7881
rfemur -8.97083 8.18987 32.2497
rtibia 31.2271
rfoot -21.2424 -18.0152
rtoes -22.7316
lfemur -24.3548 -2.41267 -16.5263
ltibia 70.2238
lfoot -11.5793 8.30836
ltoes -16.5484
331
root 9.75033 15.0596 1.8137 193.862 77.2087 -161.16
lowerback 10.0655 0.779346 3.30491
upperback 5.87258 1.58437 0.0399223
thorax 0.5507 0.991339 -1.96061
lowerneck -7.50471 6.10949 12.0187
upperneck 19.9949 8.66925 -7.71831
head 8.2866 4.48846 -3.69945
rclavicle 2.52457e-014 -1.31198e-014
rhumerus -33.0842 -0.652578 -83.8741
rradius 37.1231
rwrist -21.8338
rhand -18.4578 2.55638
rfingers 7.12502
rthumb 7.8285 -27.2787
lclavicle 2.52457e-014 -1.31198e-014
lhumerus -28.3718 1.78687 83.626
lradius 30.1778
lwrist -3.12047
lhand -24.3283 13.1644
lfingers 7.12502
lthumb 2.16025 43.1332
rfemur -7.65304 8.58 32.5056
rtibia 30.9191
rfoot -22.0403 -18.3084
rtoes -22.8998
lfemur -26.2288 -3.37876 -16.2667
ltibia 67.3447
lfoot -12.6743 9.74847
ltoes -15.7488
332
root 10.0174 15.0648 1.74863 194.227 77.4218 -160.911
lowerback 10.0604 0.849027 3.22244
upperback 5.92909 1.67085 -0.0711715
thorax 0.618408 1.03742 -2.03587
lowerneck -7.43926 6.09815 11.9792
upperneck 20.0762 8.67152 -7.67917
head 8.29842 4.49427 -3.68153
rclavicle -2.98177e-015 1.19271e-014
rhumerus -33.1824 0.0948253 -84.2761
rradius 38.3852
rwrist -22.4437
rhand -18.134 3.05337
rfingers 7.12502
rthumb 8.14097 -26.7698
lclavicle -2.98177e-015 1.19271e-014
lhumerus -28.8498 1.9769 83.1474
lradius 29.6018
lwrist -3.74216
lhand -23.8831 13.3743
lfingers 7.12502
lthumb 2.59026 43.3383
rfemur -6.1998 8.96753 32.7598
rtibia 30.3008
rfoot -22.6909 -18.6478
rtoes -22.8833
lfemur -27.7378 -4.29305 -15.9105
ltibia 63.7385
lfoot -13.4731 11.269
ltoes -15.3166
